PathFileType	4	(X/Y/Z)	C:/Users/opensim2020/Desktop/walking_exp_matlab/subject01_walking06_straight_03.trc	
DataRate	CameraRate	NumFrames	NumMarkers	Units	OrigDataRate	OrigDataStartFrame	OrigNumFrames	
100.00	100.00	9	43	mm	100.00	2233	206	
Frame#	Time	LFHD			RFHD			LBHD			RBHD			C7			T10			CLAV			STRN			RBAK			LSHO			LUPA			LELB			LFRM			LWRA			LWRB			LFIN			RSHO			RUPA			RELB			RFRM			RWRA			RWRB			RFIN			LASI			RASI			LPSI			RPSI			LTHI			LKNE			LTIB			LANK			LHEE			LTOE			RTHI			RKNE			RTIB			RANK			RHEE			RTOE			*39			*40			*41			*42			
		X1	Y1	Z1	X2	Y2	Z2	X3	Y3	Z3	X4	Y4	Z4	X5	Y5	Z5	X6	Y6	Z6	X7	Y7	Z7	X8	Y8	Z8	X9	Y9	Z9	X10	Y10	Z10	X11	Y11	Z11	X12	Y12	Z12	X13	Y13	Z13	X14	Y14	Z14	X15	Y15	Z15	X16	Y16	Z16	X17	Y17	Z17	X18	Y18	Z18	X19	Y19	Z19	X20	Y20	Z20	X21	Y21	Z21	X22	Y22	Z22	X23	Y23	Z23	X24	Y24	Z24	X25	Y25	Z25	X26	Y26	Z26	X27	Y27	Z27	X28	Y28	Z28	X29	Y29	Z29	X30	Y30	Z30	X31	Y31	Z31	X32	Y32	Z32	X33	Y33	Z33	X34	Y34	Z34	X35	Y35	Z35	X36	Y36	Z36	X37	Y37	Z37	X38	Y38	Z38	X39	Y39	Z39	X40	Y40	Z40	X41	Y41	Z41	X42	Y42	Z42	X43	Y43	Z43	

129	1.280	1397.77136	167.37218	1654.46167	1505.26587	206.13658	1659.69177	1433.11182	53.02608	1617.16467	1547.28198	90.93843	1622.00195	1468.28162	11.79108	1422.79541	1469.44226	-28.68425	1129.47412	1458.84766	153.16296	1349.71558	1454.56311	192.72981	1195.67896	1546.44946	-43.52411	1228.97070	1301.17004	85.86771	1381.90601	1220.50000	23.82840	1202.26318	1225.50305	-18.36045	1060.74426	1202.20129	-15.85495	947.14758	1229.91479	14.06428	810.02283	1196.08496	-33.58331	827.06714	1197.44031	-20.51698	741.13824	1613.26526	98.23067	1378.69775	1723.67676	74.21630	1180.16272	1735.78430	102.19987	1055.85632	1757.08813	186.98759	964.52972	1718.31726	309.52646	903.86139	1766.00952	280.45480	885.97815	1756.10962	351.69177	842.29071	1366.17041	148.03067	922.98840	1584.56519	135.86455	921.05646	1404.40710	-40.46598	934.86023	1548.01440	-48.92730	943.83368	1294.51477	185.74419	604.76831	1317.29150	214.96924	476.26276	1304.77393	230.67583	292.69669	1351.82495	297.35181	78.69698	1407.64807	268.04565	35.86321	1343.44214	445.00824	88.12607	1626.77673	16.37316	598.79590	1598.96069	-10.85766	440.28757	1595.17212	-109.69541	292.85663	1540.75000	-188.66658	100.94856	1489.12305	-243.84163	78.88634	1534.44495	-60.68708	33.16014	1485.95068	191.84299	1694.50708	-3101.83325	1973.28931	1023.23529	-3140.78052	2012.55127	1021.97491			 
130	1.290	1395.42737	176.92941	1653.80969	1502.89709	215.64748	1659.07251	1430.74890	62.52370	1616.51672	1544.87622	100.42159	1621.31519	1465.95215	21.46177	1422.08557	1467.79529	-18.25940	1128.53381	1456.80481	163.03505	1349.11011	1453.02124	203.05956	1195.15100	1544.24890	-33.55063	1228.06653	1298.94946	95.79544	1380.76709	1218.82056	34.14647	1200.86438	1224.09180	-7.91765	1059.24487	1201.14136	-5.16036	945.63190	1229.25745	25.19912	808.75208	1195.34204	-22.54079	825.42999	1196.94067	-9.18144	739.58032	1611.14124	107.58038	1378.37634	1721.49622	82.64577	1179.84692	1734.04712	110.61993	1055.64587	1755.68677	194.86192	963.92877	1717.45325	317.14444	902.47534	1764.74805	287.62585	884.51624	1755.26599	358.68750	840.38538	1365.43945	159.27420	922.40857	1583.86548	146.40883	920.34515	1402.94250	-29.48537	934.06689	1546.30603	-38.33051	943.12134	1295.47168	199.18787	604.97473	1318.12952	227.22037	476.17334	1305.03076	240.31778	291.52411	1352.44958	302.93964	76.26451	1408.02161	272.65747	34.49144	1345.17883	450.90555	84.31222	1626.67126	25.79906	598.61377	1599.16614	-2.20279	439.82996	1595.66846	-103.86213	294.17218	1541.72620	-186.67067	103.74449	1489.94812	-242.74945	83.11882	1534.55884	-60.43634	33.10504	1483.69299	201.49216	1693.97473	-3101.89063	1973.14722	1023.32483	-3140.66357	2012.46606	1021.87445			 
131	1.300	1392.97437	186.52756	1653.21338	1500.42944	225.10890	1658.49255	1428.18787	72.08354	1615.76672	1542.34644	109.92307	1620.61499	1463.43396	31.18886	1421.18018	1466.10754	-7.52063	1127.46777	1454.68201	172.99641	1348.54041	1451.28430	213.37381	1194.63330	1542.01758	-23.55129	1227.19080	1296.59680	105.83074	1379.67212	1217.01648	44.55280	1199.43506	1222.48547	2.67233	1057.71082	1199.95447	5.96207	944.09302	1228.47266	36.83514	807.50525	1194.60376	-10.99359	823.76483	1196.35168	2.86322	738.09778	1608.86023	117.03254	1378.09534	1719.20532	91.02141	1179.58240	1732.20496	118.80330	1055.44458	1754.21497	202.28012	963.10345	1716.53174	324.41434	900.82404	1763.57983	294.47623	882.98883	1754.45557	365.17725	838.19171	1364.61536	170.65585	921.89868	1583.02515	157.04924	919.68433	1401.48682	-18.23305	933.26428	1544.75391	-27.57967	942.43335	1296.65637	212.75887	605.11902	1319.19739	239.68832	476.06570	1305.53784	249.19748	290.11099	1353.30530	307.31976	74.18071	1408.44250	274.95065	33.76834	1346.93542	455.03088	79.23621	1626.09729	35.72683	598.00177	1599.35205	6.94971	439.10956	1596.11963	-97.67705	295.40125	1542.69983	-184.48953	106.75747	1491.23608	-241.00807	87.70453	1534.60571	-60.24174	32.98976	1481.23633	210.90720	1693.36963	-3101.91064	1973.09033	1023.35419	-3140.56128	2012.59778	1022.09857			 
132	1.310	1390.39038	196.04906	1652.57275	1497.92773	234.53432	1657.93018	1425.58838	81.89556	1614.89380	1539.76221	119.35274	1619.95520	1460.64771	41.00802	1420.10071	1464.40601	3.19704	1126.48950	1452.38184	182.97934	1347.94397	1449.54211	223.88406	1194.23303	1539.78992	-13.43496	1226.34009	1294.19116	115.86858	1378.65247	1215.04529	55.13802	1198.05493	1220.86670	13.65864	1056.25439	1198.68164	17.49021	942.50397	1227.54883	48.96828	806.20190	1193.73401	1.04075	822.11371	1195.48962	15.57899	736.44666	1606.48120	126.58106	1377.80554	1716.86609	99.40963	1179.35498	1730.24072	126.86121	1055.28027	1752.62085	209.62019	962.35437	1715.61487	331.36331	898.97491	1762.40454	300.87872	881.27478	1753.60205	371.22025	835.71100	1363.71741	182.44110	921.41638	1582.06372	167.71761	919.04956	1400.01453	-6.81310	932.48273	1543.11047	-16.50670	941.74786	1298.20251	226.13672	605.03137	1320.45081	252.20869	475.79816	1306.12170	257.48468	288.29709	1354.51819	309.44208	71.13996	1409.19934	276.25690	32.89036	1349.02209	457.81683	72.58948	1625.89832	46.04284	597.46570	1599.76343	16.85099	438.56879	1596.54614	-91.06521	296.85394	1543.66138	-182.04787	110.05933	1492.16577	-238.99202	92.56181	1534.80579	-59.84475	33.08570	1478.61865	220.20836	1692.72131	-3101.85889	1973.05884	1023.33636	-3140.66016	2012.49512	1022.02924			 
133	1.320	1387.72021	205.60677	1652.08386	1495.34058	243.97614	1657.47473	1422.82190	91.42410	1614.26880	1537.04297	128.77942	1619.32886	1457.89819	50.65400	1419.29968	1462.46021	14.21618	1125.39197	1450.03650	193.03735	1347.44958	1447.67639	234.49869	1193.95093	1537.42676	-3.19291	1225.50781	1291.60596	126.00302	1377.73279	1213.12354	65.81713	1196.71899	1219.16797	24.82184	1054.68311	1197.40100	29.26534	940.90906	1226.67285	61.52970	804.92468	1192.79834	13.54352	820.37079	1195.01233	28.43005	735.25818	1604.00134	136.21222	1377.50781	1714.47424	107.82664	1179.21582	1728.17078	134.64574	1055.06543	1751.02893	216.49841	961.38892	1714.64209	337.88745	896.83917	1761.16431	306.93356	879.38293	1752.88550	376.80243	833.13562	1362.76892	194.29675	921.05402	1581.09387	178.78574	918.50006	1398.34583	4.60051	931.62939	1541.44470	-5.23635	941.01190	1300.14343	239.19128	604.70972	1321.07751	264.45380	475.37683	1307.14917	265.00052	286.62955	1356.27539	312.02142	69.90089	1410.23535	277.90228	33.84693	1350.48218	461.33316	64.35889	1625.50586	56.88422	596.87842	1600.20471	27.28985	437.94571	1597.09741	-84.07983	298.67352	1544.79700	-179.29207	113.69662	1493.24854	-236.57364	97.81760	1535.10364	-59.35008	33.09863	1475.96423	229.60709	1692.19604	-3101.94653	1972.99219	1023.73254	-3140.75366	2012.44019	1021.95752			 
134	1.330	1384.95276	215.33910	1652.04382	1492.77075	253.47131	1657.43469	1419.80933	100.92992	1614.04138	1534.19788	138.24368	1619.00208	1454.92981	60.31242	1418.96289	1460.49646	25.21286	1124.57495	1447.58594	203.10365	1347.18298	1445.74963	245.09576	1194.03052	1534.72595	7.10138	1224.97803	1288.92957	136.31406	1377.05188	1210.94727	76.76191	1195.36243	1217.39600	36.41907	1053.18860	1195.98889	41.40858	939.28040	1225.58069	74.66023	803.70087	1191.85754	26.44196	818.63959	1193.99353	42.40999	733.57239	1601.48352	145.90794	1377.37805	1712.09509	116.28480	1179.18506	1725.95972	142.32904	1054.84900	1749.52612	223.33754	960.45953	1713.70728	344.07156	894.51398	1759.99683	312.65671	877.33734	1751.87915	381.97415	830.04193	1361.90015	206.01288	920.75226	1580.03967	190.10693	918.11389	1396.50171	16.09384	930.91229	1539.77991	5.97629	940.21063	1301.99548	251.62126	604.18256	1320.59448	275.72150	474.67722	1308.62146	272.40295	285.67392	1355.76978	315.68091	70.03653	1409.65271	280.20090	35.28736	1351.87354	465.62216	58.36203	1625.11243	68.33551	596.36353	1600.46680	38.42490	437.20651	1597.45264	-76.47811	300.67487	1546.14172	-175.97881	117.92458	1494.46692	-233.57053	103.77369	1535.43384	-58.85890	33.15586	1473.39917	239.01285	1691.99524	-3101.82983	1973.14380	1023.43353	-3140.60132	2012.60791	1022.09283			 
135	1.340	1382.18042	225.21498	1652.56494	1490.00378	263.09149	1657.84766	1416.72461	110.77350	1614.24585	1531.12683	147.81384	1619.20618	1451.86902	70.27972	1419.11243	1458.80359	35.97831	1124.46240	1445.13379	213.11066	1347.40649	1443.73767	255.48991	1194.42480	1531.89661	17.29135	1224.71643	1286.05444	146.62711	1376.59326	1208.76355	87.93773	1194.22058	1215.51770	48.32399	1051.75098	1194.44775	54.01056	937.70172	1224.65625	88.30532	802.83209	1190.86011	39.80901	816.91895	1193.20251	56.68315	732.18372	1599.05212	155.54541	1377.56335	1709.66138	124.75826	1179.31482	1723.60510	149.86708	1054.76111	1747.61292	229.60771	959.32886	1712.73645	349.86993	892.00842	1758.55359	317.95990	875.13159	1751.02905	386.58435	826.93616	1361.05798	217.70694	920.61749	1578.73682	201.75934	918.27649	1394.71082	27.64085	930.66840	1538.29211	17.24003	939.66711	1302.75012	263.28674	604.54034	1319.45093	286.35605	474.61237	1310.02283	280.07040	286.25800	1354.64038	320.97324	69.82867	1407.99585	282.43515	36.89309	1353.50037	469.73035	53.48956	1624.43359	80.59736	595.81049	1600.38379	50.37984	436.40115	1597.69543	-68.12293	303.24957	1547.32239	-171.98294	122.60371	1495.59424	-229.54953	110.98572	1535.97778	-58.30117	33.43190	1470.66516	248.43756	1692.30603	-3101.91943	1973.11426	1023.45227	-3140.69922	2012.58105	1022.09064			 
136	1.350	1379.17859	235.22398	1653.13586	1487.07813	272.91049	1658.48340	1413.45032	120.70176	1614.97559	1527.94189	157.51018	1619.87598	1448.87170	80.55685	1419.68115	1457.26563	46.82049	1124.67334	1442.80798	223.09195	1348.11536	1441.87939	266.08496	1195.24146	1529.25598	27.20614	1224.96497	1283.30042	157.17133	1376.47461	1206.64954	99.42935	1193.29211	1213.76147	60.55411	1050.49023	1192.97424	67.02589	936.42358	1223.56519	102.21852	801.78436	1189.74036	53.66478	815.48584	1192.32227	71.52003	731.11542	1596.71350	165.13101	1378.10266	1707.21375	133.10405	1179.70386	1721.11755	157.38167	1054.92700	1745.70325	235.70004	958.35449	1711.73596	355.25049	889.40057	1757.44702	322.75272	872.98181	1750.20447	390.68417	823.81641	1360.22046	229.30843	920.77881	1577.62366	212.57001	918.45966	1393.14014	39.25446	931.08099	1537.02466	28.45222	939.11664	1301.61060	274.23276	605.42334	1318.25867	296.71524	475.72543	1308.77136	288.96344	287.58725	1353.40625	324.51453	69.27560	1406.73779	284.31827	37.97297	1354.39160	472.91898	48.28650	1623.96826	93.65722	595.39172	1601.02808	64.07252	436.00970	1597.97180	-58.75971	306.46008	1548.11584	-166.96005	128.03305	1496.36963	-224.23709	119.00317	1535.95178	-57.84497	33.13256	1467.77209	258.24109	1693.02136	-3101.86499	1973.11523	1023.51978	-3140.60132	2012.54529	1021.93988			 
137	1.360	1375.91858	245.39525	1653.74158	1483.89368	282.74954	1659.18591	1409.92773	130.70737	1615.82117	1524.50244	167.22939	1620.83777	1446.14807	91.05685	1420.45239	1455.86328	57.46003	1125.07751	1440.63867	233.24091	1349.11157	1439.94897	276.80292	1196.27612	1526.79419	37.27936	1225.28320	1280.78186	167.87346	1376.73352	1204.65332	111.19453	1192.89819	1211.88074	73.19574	1049.60864	1191.36377	80.50510	935.51666	1222.51306	116.70872	801.36310	1188.54114	68.04979	814.42413	1191.24268	86.94006	730.53754	1594.53784	174.88184	1378.97021	1704.68457	141.63293	1180.39868	1718.46106	164.77277	1055.40356	1743.88782	241.60744	957.69971	1710.66711	360.14063	886.73511	1756.10132	327.05167	870.81512	1749.33484	394.08279	820.48938	1359.29102	240.82196	921.40149	1576.42346	223.41010	918.90228	1391.90063	50.64416	932.05060	1535.95642	39.72043	938.92188	1299.01917	284.26889	606.21454	1317.69409	307.10880	477.33582	1306.18372	298.88934	288.83063	1353.45728	327.30679	69.56055	1406.13757	285.34106	38.55912	1354.06287	474.78879	44.86954	1623.45752	107.60852	595.08527	1602.12598	78.74467	435.59857	1598.06982	-48.14443	309.74750	1548.64124	-160.99379	134.42036	1496.27515	-217.39207	127.84012	1535.88159	-57.24062	32.91336	1464.65002	268.23907	1693.86450	-3101.80981	1973.18188	1023.36426	-3140.65552	2012.53467	1022.00366			 
